  0
SECTION
  2
HEADER
  9
$ACADVER
  1
AC1014
  9
$HANDSEED
  5
FFFF
  9
$MEASUREMENT
 70
     1
  0
ENDSEC
  0
SECTION
  2
TABLES
  0
TABLE
  2
VPORT
  5
8
330
0
100
AcDbSymbolTable
 70
     4
  0
VPORT
  5
2E
330
8
100
AcDbSymbolTableRecord
100
AcDbViewportTableRecord
  2
*ACTIVE
 70
     0
 10
0.0
 20
0.0
 11
1.0
 21
1.0
 12
210.0
 22
148.5
 13
0.0
 23
0.0
 14
10.0
 24
10.0
 15
10.0
 25
10.0
 16
0.0
 26
0.0
 36
1.0
 17
0.0
 27
0.0
 37
0.0
 40
341.0
 41
1.24
 42
50.0
 43
0.0
 44
0.0
 50
0.0
 51
0.0
 71
     0
 72
   100
 73
     1
 74
     3
 75
     0
 76
     0
 77
     0
 78
     0
  0
ENDTAB
  0
TABLE
  2
LTYPE
  5
5
330
0
100
AcDbSymbolTable
 70
     1
  0
LTYPE
  5
14
330
5
100
AcDbSymbolTableRecord
100
AcDbLinetypeTableRecord
  2
BYBLOCK
 70
     0
  3

 72
    65
 73
     0
 40
0.0
  0
LTYPE
  5
15
330
5
100
AcDbSymbolTableRecord
100
AcDbLinetypeTableRecord
  2
BYLAYER
 70
     0
  3

 72
    65
 73
     0
 40
0.0
  0
LTYPE
  5
16
330
5
100
AcDbSymbolTableRecord
100
AcDbLinetypeTableRecord
  2
CONTINUOUS
 70
     0
  3
Solid line
 72
    65
 73
     0
 40
0.0
  0
ENDTAB
  0
TABLE
  2
LAYER
  5
2
100
AcDbSymbolTable
 70
2
  0
LAYER
  5
50
100
AcDbSymbolTableRecord
100
AcDbLayerTableRecord
  2
0
 70
0
  6
CONTINUOUS
  0
LAYER
  5
51
100
AcDbSymbolTableRecord
100
AcDbLayerTableRecord
  2
aa
 70
0
  6
CONTINUOUS
  0
ENDTAB
  0
TABLE
  2
STYLE
  5
3
330
0
100
AcDbSymbolTable
 70
     1
  0
STYLE
  5
11
330
3
100
AcDbSymbolTableRecord
100
AcDbTextStyleTableRecord
  2
STANDARD
 70
     0
 40
0.0
 41
1.0
 50
0.0
 71
     0
 42
2.5
  3
txt
  4

  0
ENDTAB
  0
TABLE
  2
VIEW
  5
6
330
0
100
AcDbSymbolTable
 70
     0
  0
ENDTAB
  0
TABLE
  2
UCS
  5
7
330
0
100
AcDbSymbolTable
 70
     0
  0
ENDTAB
  0
TABLE
  2
APPID
  5
9
330
0
100
AcDbSymbolTable
 70
     2
  0
APPID
  5
12
330
9
100
AcDbSymbolTableRecord
100
AcDbRegAppTableRecord
  2
ACAD
 70
     0
  0
ENDTAB
  0
TABLE
  2
DIMSTYLE
  5
A
330
0
100
AcDbSymbolTable
 70
     1
  0
DIMSTYLE
105
27
330
A
100
AcDbSymbolTableRecord
100
AcDbDimStyleTableRecord
  2
ISO-25
 70
     0
  3

  4

  5

  6

  7

 40
1.0
 41
2.5
 42
0.625
 43
3.75
 44
1.25
 45
0.0
 46
0.0
 47
0.0
 48
0.0
140
2.5
141
2.5
142
0.0
143
0.03937007874016
144
1.0
145
0.0
146
1.0
147
0.625
 71
     0
 72
     0
 73
     0
 74
     0
 75
     0
 76
     0
 77
     1
 78
     8
170
     0
171
     3
172
     1
173
     0
174
     0
175
     0
176
     0
177
     0
178
     0
270
     2
271
     2
272
     2
273
     2
274
     3
340
11
275
     0
280
     0
281
     0
282
     0
283
     0
284
     8
285
     0
286
     0
287
     3
288
     0
  0
ENDTAB
  0
TABLE
  2
BLOCK_RECORD
  5
1
330
0
100
AcDbSymbolTable
 70
     1
  0
BLOCK_RECORD
  5
1F
330
1
100
AcDbSymbolTableRecord
100
AcDbBlockTableRecord
  2
*MODEL_SPACE
  0
BLOCK_RECORD
  5
1B
330
1
100
AcDbSymbolTableRecord
100
AcDbBlockTableRecord
  2
*PAPER_SPACE
  0
ENDTAB
  0
ENDSEC
  0
SECTION
  2
BLOCKS
  0
BLOCK
  5
20
330
1F
100
AcDbEntity
  8
0
100
AcDbBlockBegin
  2
*MODEL_SPACE
 70
     0
 10
0.0
 20
0.0
 30
0.0
  3
*MODEL_SPACE
  1

  0
ENDBLK
  5
21
330
1F
100
AcDbEntity
  8
0
100
AcDbBlockEnd
  0
BLOCK
  5
1C
330
1B
100
AcDbEntity
 67
     1
  8
0
100
AcDbBlockBegin
  2
*PAPER_SPACE
  1

  0
ENDBLK
  5
1D
330
1B
100
AcDbEntity
 67
     1
  8
0
100
AcDbBlockEnd
  0
ENDSEC
  0
SECTION
  2
ENTITIES
  0
LWPOLYLINE
  5
100
100
AcDbEntity
  8
aa
 62
7
100
AcDbPolyline
 90
75
 70
0
 10
9.152000
 20
10.466703
 30
0.0
 10
10.976000
 20
17.730703
 30
0.0
 10
11.968000
 20
17.730703
 30
0.0
 10
14.496000
 20
17.826703
 30
0.0
 10
15.266000
 20
17.758703
 30
0.0
 10
15.808000
 20
17.450703
 30
0.0
 10
16.278000
 20
16.746703
 30
0.0
 10
16.832000
 20
15.490703
 30
0.0
 10
18.944000
 20
17.602703
 30
0.0
 10
18.664000
 20
18.418703
 30
0.0
 10
18.404000
 20
18.673703
 30
0.0
 10
18.048000
 20
18.850703
 30
0.0
 10
11.200000
 20
18.722703
 30
0.0
 10
11.392000
 20
19.394703
 30
0.0
 10
9.152000
 20
18.722703
 30
0.0
 10
7.042496
 20
18.586703
 30
0.0
 10
5.260000
 20
18.210703
 30
0.0
 10
3.711496
 20
17.570703
 30
0.0
 10
2.304000
 20
16.642703
 30
0.0
 10
1.269000
 20
15.676703
 30
0.0
 10
0.552000
 20
14.674703
 30
0.0
 10
0.135000
 20
13.600703
 30
0.0
 10
0.000000
 20
12.418703
 30
0.0
 10
0.120000
 20
11.230703
 30
0.0
 10
0.576000
 20
9.826703
 30
0.0
 10
2.880000
 20
11.362703
 30
0.0
 10
2.564000
 20
12.774703
 30
0.0
 10
2.464000
 20
14.018703
 30
0.0
 10
2.549496
 20
14.886831
 30
0.0
 10
2.812000
 20
15.623703
 30
0.0
 10
3.260496
 20
16.236079
 30
0.0
 10
3.904000
 20
16.730703
 30
0.0
 10
4.751496
 20
17.114327
 30
0.0
 10
5.812000
 20
17.393703
 30
0.0
 10
8.608000
 20
17.666703
 30
0.0
 10
6.816000
 20
10.466703
 30
0.0
 10
5.568000
 20
9.090703
 30
0.0
 10
6.464000
 20
9.090703
 30
0.0
 10
6.112000
 20
7.810703
 30
0.0
 10
5.313000
 20
4.866703
 30
0.0
 10
4.943120
 20
3.879959
 30
0.0
 10
4.544000
 20
3.146703
 30
0.0
 10
4.078872
 20
2.614455
 30
0.0
 10
3.511000
 20
2.230703
 30
0.0
 10
1.920000
 20
1.698703
 30
0.0
 10
0.704000
 20
0.642703
 30
0.0
 10
2.496000
 20
0.610703
 30
0.0
 10
5.376000
 20
0.578703
 30
0.0
 10
7.936000
 20
0.514703
 30
0.0
 10
13.216000
 20
0.386703
 30
0.0
 10
14.270496
 20
0.437183
 30
0.0
 10
15.076000
 20
0.646679
 30
0.0
 10
15.839496
 20
1.102183
 30
0.0
 10
16.768000
 20
1.890679
 30
0.0
 10
18.328000
 20
3.514679
 30
0.0
 10
18.676000
 20
4.140679
 30
0.0
 10
18.784000
 20
4.706679
 30
0.0
 10
18.656000
 20
5.442679
 30
0.0
 10
16.224000
 20
4.546679
 30
0.0
 10
16.352000
 20
3.330679
 30
0.0
 10
16.239000
 20
2.602679
 30
0.0
 10
16.058376
 20
2.360935
 30
0.0
 10
15.760000
 20
2.186679
 30
0.0
 10
14.705000
 20
1.998679
 30
0.0
 10
12.864000
 20
1.954679
 30
0.0
 10
4.544000
 20
1.954679
 30
0.0
 10
6.361496
 20
3.679679
 30
0.0
 10
7.420000
 20
5.026679
 30
0.0
 10
8.112496
 20
6.661679
 30
0.0
 10
8.832000
 20
9.250679
 30
0.0
 10
11.424000
 20
9.410679
 30
0.0
 10
12.800000
 20
9.474679
 30
0.0
 10
13.664000
 20
9.538679
 30
0.0
 10
14.880000
 20
10.466679
 30
0.0
 10
9.152000
 20
10.466679
 30
0.0
  0
LWPOLYLINE
  5
101
100
AcDbEntity
  8
aa
 62
7
100
AcDbPolyline
 90
28
 70
0
 10
20.260496
 20
0.322703
 30
0.0
 10
22.724496
 20
1.250703
 30
0.0
 10
25.124496
 20
10.370703
 30
0.0
 10
26.552496
 20
11.230703
 30
0.0
 10
27.180992
 20
11.428207
 30
0.0
 10
27.812496
 20
11.490687
 30
0.0
 10
28.293496
 20
11.439167
 30
0.0
 10
28.708496
 20
11.270663
 30
0.0
 10
29.508496
 20
10.498663
 30
0.0
 10
30.468496
 20
13.538663
 30
0.0
 10
29.284496
 20
13.794663
 30
0.0
 10
28.336496
 20
13.574663
 30
0.0
 10
27.172496
 20
12.898663
 30
0.0
 10
25.284496
 20
11.522663
 30
0.0
 10
25.380496
 20
12.034663
 30
0.0
 10
25.668496
 20
13.442663
 30
0.0
 10
25.544496
 20
13.690663
 30
0.0
 10
25.252496
 20
13.794663
 30
0.0
 10
23.236496
 20
12.958663
 30
0.0
 10
20.068496
 20
11.234663
 30
0.0
 10
19.972496
 20
10.370663
 30
0.0
 10
21.628496
 20
11.186663
 30
0.0
 10
22.276496
 20
11.330663
 30
0.0
 10
22.736496
 20
11.162663
 30
0.0
 10
22.884496
 20
10.658663
 30
0.0
 10
22.676496
 20
9.342663
 30
0.0
 10
22.180496
 20
7.330663
 30
0.0
 10
20.260496
 20
0.322663
 30
0.0
  0
LWPOLYLINE
  5
102
100
AcDbEntity
  8
aa
 62
7
100
AcDbPolyline
 90
11
 70
0
 10
34.749496
 20
16.450703
 30
0.0
 10
36.829496
 20
18.178703
 30
0.0
 10
36.413496
 20
18.914703
 30
0.0
 10
35.933496
 20
19.938703
 30
0.0
 10
35.741496
 20
20.354703
 30
0.0
 10
35.293496
 20
20.002703
 30
0.0
 10
34.589496
 20
19.426703
 30
0.0
 10
33.917496
 20
18.946703
 30
0.0
 10
33.533496
 20
18.690703
 30
0.0
 10
33.961496
 20
17.690703
 30
0.0
 10
34.749496
 20
16.450703
 30
0.0
  0
LWPOLYLINE
  5
103
100
AcDbEntity
  8
aa
 62
7
100
AcDbPolyline
 90
33
 70
0
 10
36.957496
 20
4.354703
 30
0.0
 10
34.213496
 20
2.910703
 30
0.0
 10
33.735496
 20
2.721207
 30
0.0
 10
33.437496
 20
2.690727
 30
0.0
 10
33.198992
 20
2.754247
 30
0.0
 10
33.017496
 20
2.934743
 30
0.0
 10
32.861496
 20
3.586743
 30
0.0
 10
33.149496
 20
5.218743
 30
0.0
 10
35.101496
 20
13.474743
 30
0.0
 10
34.993496
 20
13.706743
 30
0.0
 10
34.717496
 20
13.794743
 30
0.0
 10
34.066992
 20
13.602247
 30
0.0
 10
32.969496
 20
13.046743
 30
0.0
 10
29.661496
 20
10.978743
 30
0.0
 10
29.597496
 20
10.082743
 30
0.0
 10
31.365496
 20
11.010743
 30
0.0
 10
31.933496
 20
11.170743
 30
0.0
 10
32.221496
 20
11.026743
 30
0.0
 10
32.317496
 20
10.594743
 30
0.0
 10
32.209496
 20
9.778743
 30
0.0
 10
31.741496
 20
7.906743
 30
0.0
 10
30.425496
 20
2.906743
 30
0.0
 10
30.237496
 20
1.506743
 30
0.0
 10
30.294456
 20
0.982743
 30
0.0
 10
30.453456
 20
0.578743
 30
0.0
 10
30.696456
 20
0.318743
 30
0.0
 10
31.005456
 20
0.226743
 30
0.0
 10
31.481456
 20
0.308743
 30
0.0
 10
32.125456
 20
0.570743
 30
0.0
 10
34.109456
 20
1.730743
 30
0.0
 10
35.933456
 20
2.914743
 30
0.0
 10
36.829456
 20
3.458743
 30
0.0
 10
36.957456
 20
4.354743
 30
0.0
  0
LWPOLYLINE
  5
104
100
AcDbEntity
  8
aa
 62
7
100
AcDbPolyline
 90
65
 70
0
 10
37.477000
 20
0.290703
 30
0.0
 10
38.245000
 20
0.578703
 30
0.0
 10
39.109000
 20
0.866703
 30
0.0
 10
39.813000
 20
1.090703
 30
0.0
 10
41.061000
 20
6.786703
 30
0.0
 10
41.797000
 20
7.234703
 30
0.0
 10
43.589000
 20
3.074703
 30
0.0
 10
44.535000
 20
0.966703
 30
0.0
 10
45.373000
 20
-0.565297
 30
0.0
 10
46.199000
 20
-1.677297
 30
0.0
 10
47.109000
 20
-2.525297
 30
0.0
 10
48.241000
 20
-3.240793
 30
0.0
 10
49.517000
 20
-3.785297
 30
0.0
 10
50.853000
 20
-4.131793
 30
0.0
 10
52.165000
 20
-4.253297
 30
0.0
 10
53.196000
 20
-4.190817
 30
0.0
 10
54.101000
 20
-3.993321
 30
0.0
 10
54.910000
 20
-3.645817
 30
0.0
 10
55.653000
 20
-3.133321
 30
0.0
 10
55.013000
 20
-0.829321
 30
0.0
 10
54.255000
 20
-1.933321
 30
0.0
 10
53.485000
 20
-2.677321
 30
0.0
 10
52.655000
 20
-3.097321
 30
0.0
 10
51.717000
 20
-3.229321
 30
0.0
 10
50.689496
 20
-3.028817
 30
0.0
 10
49.689000
 20
-2.441321
 30
0.0
 10
48.742496
 20
-1.487817
 30
0.0
 10
47.877000
 20
-0.189321
 30
0.0
 10
43.589000
 20
8.738679
 30
0.0
 10
45.733000
 20
10.690679
 30
0.0
 10
47.093000
 20
11.782679
 30
0.0
 10
47.542000
 20
11.982183
 30
0.0
 10
47.973000
 20
12.034663
 30
0.0
 10
48.705000
 20
11.822663
 30
0.0
 10
49.413000
 20
11.106663
 30
0.0
 10
51.045000
 20
13.538663
 30
0.0
 10
50.185000
 20
14.038663
 30
0.0
 10
49.253000
 20
14.178663
 30
0.0
 10
48.667000
 20
14.119623
 30
0.0
 10
48.117000
 20
13.922623
 30
0.0
 10
46.885000
 20
12.994623
 30
0.0
 10
45.509000
 20
11.682623
 30
0.0
 10
41.381000
 20
8.002623
 30
0.0
 10
42.597000
 20
12.898623
 30
0.0
 10
43.737000
 20
17.218623
 30
0.0
 10
44.131496
 20
18.298623
 30
0.0
 10
44.517000
 20
19.042623
 30
0.0
 10
44.997000
 20
19.649127
 30
0.0
 10
45.573000
 20
20.078623
 30
0.0
 10
46.245000
 20
20.334119
 30
0.0
 10
47.013000
 20
20.418623
 30
0.0
 10
48.133000
 20
20.290623
 30
0.0
 10
49.413000
 20
22.146623
 30
0.0
 10
48.485000
 20
22.242623
 30
0.0
 10
47.683496
 20
22.191103
 30
0.0
 10
46.969000
 20
22.022599
 30
0.0
 10
46.284496
 20
21.716103
 30
0.0
 10
45.573000
 20
21.250599
 30
0.0
 10
44.157496
 20
20.183599
 30
0.0
 10
43.009000
 20
19.170599
 30
0.0
 10
42.166496
 20
18.253599
 30
0.0
 10
41.669000
 20
17.474599
 30
0.0
 10
41.033000
 20
15.570599
 30
0.0
 10
40.325000
 20
12.802599
 30
0.0
 10
37.477000
 20
0.290599
 30
0.0
  0
LWPOLYLINE
  5
105
100
AcDbEntity
  8
aa
 62
7
100
AcDbPolyline
 90
34
 70
0
 10
64.499496
 20
4.802703
 30
0.0
 10
62.119496
 20
3.258703
 30
0.0
 10
61.299496
 20
2.914703
 30
0.0
 10
61.023496
 20
3.090703
 30
0.0
 10
60.915496
 20
3.554703
 30
0.0
 10
61.443496
 20
6.574703
 30
0.0
 10
62.835496
 20
12.162703
 30
0.0
 10
63.763496
 20
13.314703
 30
0.0
 10
61.687496
 20
13.686703
 30
0.0
 10
59.731496
 20
13.794703
 30
0.0
 10
58.175496
 20
13.666703
 30
0.0
 10
56.979496
 20
13.154703
 30
0.0
 10
55.247496
 20
12.014703
 30
0.0
 10
54.067496
 20
11.042703
 30
0.0
 10
53.618936
 20
10.408391
 30
0.0
 10
53.172992
 20
9.550207
 30
0.0
 10
52.359496
 20
7.382703
 30
0.0
 10
51.767992
 20
4.981207
 30
0.0
 10
51.539496
 20
2.786703
 30
0.0
 10
51.631992
 20
1.738703
 30
0.0
 10
51.895496
 20
0.930703
 30
0.0
 10
52.308992
 20
0.410703
 30
0.0
 10
52.851496
 20
0.226703
 30
0.0
 10
53.486000
 20
0.371703
 30
0.0
 10
54.495496
 20
0.906703
 30
0.0
 10
58.611496
 20
3.746703
 30
0.0
 10
58.131496
 20
0.898703
 30
0.0
 10
58.267496
 20
0.406703
 30
0.0
 10
58.643496
 20
0.226703
 30
0.0
 10
58.905496
 20
0.252223
 30
0.0
 10
59.299496
 20
0.430719
 30
0.0
 10
61.587496
 20
1.858719
 30
0.0
 10
64.467496
 20
3.874719
 30
0.0
 10
64.499496
 20
4.802719
 30
0.0
  0
LWPOLYLINE
  5
106
100
AcDbEntity
  8
aa
 62
7
100
AcDbPolyline
 90
22
 70
0
 10
58.259496
 20
4.610719
 30
0.0
 10
56.055496
 20
3.134719
 30
0.0
 10
55.347992
 20
2.797223
 30
0.0
 10
54.835496
 20
2.690719
 30
0.0
 10
54.489496
 20
2.796719
 30
0.0
 10
54.227496
 20
3.106719
 30
0.0
 10
54.061496
 20
3.608719
 30
0.0
 10
54.003496
 20
4.290719
 30
0.0
 10
54.095992
 20
5.584223
 30
0.0
 10
54.359496
 20
7.006719
 30
0.0
 10
54.772992
 20
8.471223
 30
0.0
 10
55.315496
 20
9.890719
 30
0.0
 10
55.886496
 20
11.013215
 30
0.0
 10
56.475496
 20
11.766719
 30
0.0
 10
57.124496
 20
12.190215
 30
0.0
 10
57.875496
 20
12.322719
 30
0.0
 10
59.019496
 20
12.210719
 30
0.0
 10
60.595496
 20
11.906719
 30
0.0
 10
59.699496
 20
8.578719
 30
0.0
 10
59.155496
 20
6.146719
 30
0.0
 10
58.867496
 20
5.026719
 30
0.0
 10
58.259496
 20
4.610719
 30
0.0
  0
LWPOLYLINE
  5
107
100
AcDbEntity
  8
aa
 62
7
100
AcDbPolyline
 90
20
 70
0
 10
2.761496
 20
23.809908
 30
0.0
 10
5.289496
 20
23.841908
 30
0.0
 10
10.281496
 20
23.809908
 30
0.0
 10
11.433496
 20
24.609908
 30
0.0
 10
8.457496
 20
24.833908
 30
0.0
 10
10.185496
 20
31.985908
 30
0.0
 10
12.585496
 20
41.153908
 30
0.0
 10
14.441496
 20
41.345908
 30
0.0
 10
15.561496
 20
42.145908
 30
0.0
 10
14.473496
 20
42.145908
 30
0.0
 10
10.665496
 20
42.113908
 30
0.0
 10
8.201496
 20
42.145908
 30
0.0
 10
7.081496
 20
41.345908
 30
0.0
 10
9.961496
 20
41.153908
 30
0.0
 10
9.481496
 20
39.009908
 30
0.0
 10
8.809496
 20
36.385908
 30
0.0
 10
6.281496
 20
26.529908
 30
0.0
 10
5.801496
 20
24.833908
 30
0.0
 10
3.913496
 20
24.609908
 30
0.0
 10
2.761496
 20
23.809908
 30
0.0
  0
LWPOLYLINE
  5
108
100
AcDbEntity
  8
aa
 62
7
100
AcDbPolyline
 90
63
 70
0
 10
13.733000
 20
26.465908
 30
0.0
 10
13.669000
 20
25.729908
 30
0.0
 10
13.841000
 20
24.784412
 30
0.0
 10
14.325000
 20
24.045908
 30
0.0
 10
15.073000
 20
23.565412
 30
0.0
 10
16.037000
 20
23.393908
 30
0.0
 10
16.841496
 20
23.467908
 30
0.0
 10
17.721000
 20
23.673908
 30
0.0
 10
19.429000
 20
24.385908
 30
0.0
 10
20.700496
 20
25.294908
 30
0.0
 10
21.657000
 20
26.353908
 30
0.0
 10
22.259496
 20
27.508908
 30
0.0
 10
22.469000
 20
28.705908
 30
0.0
 10
22.406040
 20
29.447908
 30
0.0
 10
22.133040
 20
30.009908
 30
0.0
 10
21.524040
 20
30.559908
 30
0.0
 10
20.453040
 20
31.265908
 30
0.0
 10
19.754040
 20
31.780908
 30
0.0
 10
19.277040
 20
32.289908
 30
0.0
 10
19.004040
 20
32.822908
 30
0.0
 10
18.917040
 20
33.409908
 30
0.0
 10
19.079040
 20
34.188908
 30
0.0
 10
19.517040
 20
34.841908
 30
0.0
 10
20.159040
 20
35.290908
 30
0.0
 10
20.933040
 20
35.457908
 30
0.0
 10
21.454536
 20
35.388948
 30
0.0
 10
21.937040
 20
35.169948
 30
0.0
 10
22.917040
 20
34.209948
 30
0.0
 10
23.921040
 20
35.209948
 30
0.0
 10
24.421040
 20
35.873948
 30
0.0
 10
23.942040
 20
36.367948
 30
0.0
 10
23.445040
 20
36.705948
 30
0.0
 10
22.900040
 20
36.899948
 30
0.0
 10
22.277040
 20
36.961948
 30
0.0
 10
21.376728
 20
36.838196
 30
0.0
 10
20.456536
 20
36.493948
 30
0.0
 10
19.559600
 20
35.969700
 30
0.0
 10
18.729040
 20
35.305948
 30
0.0
 10
18.007976
 20
34.543196
 30
0.0
 10
17.439544
 20
33.721948
 30
0.0
 10
17.066856
 20
32.882700
 30
0.0
 10
16.933040
 20
32.065948
 30
0.0
 10
17.032040
 20
31.358948
 30
0.0
 10
17.341040
 20
30.705948
 30
0.0
 10
17.878040
 20
30.076948
 30
0.0
 10
18.661040
 20
29.441948
 30
0.0
 10
19.621040
 20
28.736948
 30
0.0
 10
20.173040
 20
28.217948
 30
0.0
 10
20.425040
 20
27.758948
 30
0.0
 10
20.485040
 20
27.233948
 30
0.0
 10
20.235536
 20
26.357948
 30
0.0
 10
19.593040
 20
25.553948
 30
0.0
 10
18.716536
 20
24.965948
 30
0.0
 10
17.765040
 20
24.737948
 30
0.0
 10
17.268040
 20
24.808988
 30
0.0
 10
16.837040
 20
25.017988
 30
0.0
 10
16.478040
 20
25.358988
 30
0.0
 10
16.197040
 20
25.825988
 30
0.0
 10
15.965040
 20
26.621988
 30
0.0
 10
15.877040
 20
27.873988
 30
0.0
 10
15.141040
 20
27.361988
 30
0.0
 10
14.309040
 20
26.849988
 30
0.0
 10
13.733040
 20
26.465988
 30
0.0
  0
LWPOLYLINE
  5
109
100
AcDbEntity
  8
aa
 62
7
100
AcDbPolyline
 90
34
 70
0
 10
38.351000
 20
27.969908
 30
0.0
 10
35.971000
 20
26.425908
 30
0.0
 10
35.151000
 20
26.081908
 30
0.0
 10
34.875000
 20
26.257908
 30
0.0
 10
34.767000
 20
26.721908
 30
0.0
 10
35.295000
 20
29.741908
 30
0.0
 10
36.687000
 20
35.329908
 30
0.0
 10
37.615000
 20
36.481908
 30
0.0
 10
35.539000
 20
36.853908
 30
0.0
 10
33.583000
 20
36.961908
 30
0.0
 10
32.027000
 20
36.833908
 30
0.0
 10
30.831000
 20
36.321908
 30
0.0
 10
29.099000
 20
35.181908
 30
0.0
 10
27.919000
 20
34.209908
 30
0.0
 10
27.470440
 20
33.575596
 30
0.0
 10
27.024496
 20
32.717412
 30
0.0
 10
26.211000
 20
30.549908
 30
0.0
 10
25.619496
 20
28.148412
 30
0.0
 10
25.391000
 20
25.953908
 30
0.0
 10
25.483496
 20
24.905908
 30
0.0
 10
25.747000
 20
24.097908
 30
0.0
 10
26.160496
 20
23.577908
 30
0.0
 10
26.703000
 20
23.393908
 30
0.0
 10
27.337496
 20
23.538908
 30
0.0
 10
28.347000
 20
24.073908
 30
0.0
 10
32.463000
 20
26.913908
 30
0.0
 10
31.983000
 20
24.065908
 30
0.0
 10
32.119000
 20
23.573908
 30
0.0
 10
32.495000
 20
23.393908
 30
0.0
 10
32.757000
 20
23.419428
 30
0.0
 10
33.151000
 20
23.597924
 30
0.0
 10
35.439000
 20
25.025924
 30
0.0
 10
38.319000
 20
27.041924
 30
0.0
 10
38.351000
 20
27.969924
 30
0.0
  0
LWPOLYLINE
  5
10a
100
AcDbEntity
  8
aa
 62
7
100
AcDbPolyline
 90
22
 70
0
 10
32.111000
 20
27.777924
 30
0.0
 10
29.907000
 20
26.301924
 30
0.0
 10
29.199496
 20
25.964420
 30
0.0
 10
28.687000
 20
25.857924
 30
0.0
 10
28.341000
 20
25.963924
 30
0.0
 10
28.079000
 20
26.273924
 30
0.0
 10
27.913000
 20
26.775924
 30
0.0
 10
27.855000
 20
27.457924
 30
0.0
 10
27.947496
 20
28.751428
 30
0.0
 10
28.211000
 20
30.173924
 30
0.0
 10
28.624496
 20
31.638428
 30
0.0
 10
29.167000
 20
33.057924
 30
0.0
 10
29.738000
 20
34.180428
 30
0.0
 10
30.327000
 20
34.933924
 30
0.0
 10
30.976000
 20
35.357428
 30
0.0
 10
31.727000
 20
35.489924
 30
0.0
 10
32.871000
 20
35.377924
 30
0.0
 10
34.447000
 20
35.073924
 30
0.0
 10
33.551000
 20
31.745924
 30
0.0
 10
33.007000
 20
29.313924
 30
0.0
 10
32.719000
 20
28.193924
 30
0.0
 10
32.111000
 20
27.777924
 30
0.0
  0
LWPOLYLINE
  5
10b
100
AcDbEntity
  8
aa
 62
7
100
AcDbPolyline
 90
34
 70
0
 10
51.788496
 20
27.969908
 30
0.0
 10
49.408496
 20
26.425908
 30
0.0
 10
48.588496
 20
26.081908
 30
0.0
 10
48.312496
 20
26.257908
 30
0.0
 10
48.204496
 20
26.721908
 30
0.0
 10
48.732496
 20
29.741908
 30
0.0
 10
50.124496
 20
35.329908
 30
0.0
 10
51.052496
 20
36.481908
 30
0.0
 10
48.976496
 20
36.853908
 30
0.0
 10
47.020496
 20
36.961908
 30
0.0
 10
45.464496
 20
36.833908
 30
0.0
 10
44.268496
 20
36.321908
 30
0.0
 10
42.536496
 20
35.181908
 30
0.0
 10
41.356496
 20
34.209908
 30
0.0
 10
40.907936
 20
33.575596
 30
0.0
 10
40.462000
 20
32.717412
 30
0.0
 10
39.648496
 20
30.549908
 30
0.0
 10
39.056992
 20
28.148412
 30
0.0
 10
38.828496
 20
25.953908
 30
0.0
 10
38.920992
 20
24.905908
 30
0.0
 10
39.184496
 20
24.097908
 30
0.0
 10
39.597992
 20
23.577908
 30
0.0
 10
40.140496
 20
23.393908
 30
0.0
 10
40.775000
 20
23.538908
 30
0.0
 10
41.784496
 20
24.073908
 30
0.0
 10
45.900496
 20
26.913908
 30
0.0
 10
45.420496
 20
24.065908
 30
0.0
 10
45.556496
 20
23.573908
 30
0.0
 10
45.932496
 20
23.393908
 30
0.0
 10
46.194496
 20
23.419428
 30
0.0
 10
46.588496
 20
23.597924
 30
0.0
 10
48.876496
 20
25.025924
 30
0.0
 10
51.756496
 20
27.041924
 30
0.0
 10
51.788496
 20
27.969924
 30
0.0
  0
LWPOLYLINE
  5
10c
100
AcDbEntity
  8
aa
 62
7
100
AcDbPolyline
 90
22
 70
0
 10
45.548496
 20
27.777924
 30
0.0
 10
43.344496
 20
26.301924
 30
0.0
 10
42.637000
 20
25.964420
 30
0.0
 10
42.124496
 20
25.857924
 30
0.0
 10
41.778496
 20
25.963924
 30
0.0
 10
41.516496
 20
26.273924
 30
0.0
 10
41.350496
 20
26.775924
 30
0.0
 10
41.292496
 20
27.457924
 30
0.0
 10
41.384992
 20
28.751428
 30
0.0
 10
41.648496
 20
30.173924
 30
0.0
 10
42.062000
 20
31.638428
 30
0.0
 10
42.604496
 20
33.057924
 30
0.0
 10
43.175496
 20
34.180428
 30
0.0
 10
43.764496
 20
34.933924
 30
0.0
 10
44.413496
 20
35.357428
 30
0.0
 10
45.164496
 20
35.489924
 30
0.0
 10
46.308496
 20
35.377924
 30
0.0
 10
47.884496
 20
35.073924
 30
0.0
 10
46.988496
 20
31.745924
 30
0.0
 10
46.444496
 20
29.313924
 30
0.0
 10
46.156496
 20
28.193924
 30
0.0
 10
45.548496
 20
27.777924
 30
0.0
  0
LWPOLYLINE
  5
10d
100
AcDbEntity
  8
aa
 62
7
100
AcDbPolyline
 90
46
 70
0
 10
61.738000
 20
27.873908
 30
0.0
 10
60.032496
 20
26.716404
 30
0.0
 10
58.606000
 20
25.885908
 30
0.0
 10
57.449496
 20
25.385404
 30
0.0
 10
56.554000
 20
25.217908
 30
0.0
 10
55.783000
 20
25.381908
 30
0.0
 10
55.210000
 20
25.857908
 30
0.0
 10
54.853000
 20
26.621908
 30
0.0
 10
54.730000
 20
27.649908
 30
0.0
 10
54.799520
 20
28.881412
 30
0.0
 10
54.998024
 20
30.205908
 30
0.0
 10
55.310520
 20
31.524412
 30
0.0
 10
55.722024
 20
32.737908
 30
0.0
 10
56.236520
 20
33.853412
 30
0.0
 10
56.814024
 20
34.653908
 30
0.0
 10
57.445520
 20
35.136412
 30
0.0
 10
58.122024
 20
35.297908
 30
0.0
 10
58.633520
 20
35.180908
 30
0.0
 10
59.022024
 20
34.817908
 30
0.0
 10
59.296520
 20
34.190908
 30
0.0
 10
59.466024
 20
33.281908
 30
0.0
 10
61.322024
 20
34.369908
 30
0.0
 10
61.354024
 20
34.721908
 30
0.0
 10
61.226520
 20
35.652412
 30
0.0
 10
60.862024
 20
36.357908
 30
0.0
 10
60.287520
 20
36.805412
 30
0.0
 10
59.530024
 20
36.961908
 30
0.0
 10
58.706024
 20
36.801908
 30
0.0
 10
57.450024
 20
36.065908
 30
0.0
 10
55.971520
 20
35.100908
 30
0.0
 10
55.006024
 20
34.345908
 30
0.0
 10
54.358520
 20
33.626908
 30
0.0
 10
53.834024
 20
32.769908
 30
0.0
 10
53.211024
 20
31.314908
 30
0.0
 10
52.714024
 20
29.649908
 30
0.0
 10
52.385024
 20
27.936908
 30
0.0
 10
52.266024
 20
26.337908
 30
0.0
 10
52.424024
 20
25.094908
 30
0.0
 10
52.882024
 20
24.169908
 30
0.0
 10
53.616024
 20
23.592908
 30
0.0
 10
54.602024
 20
23.393908
 30
0.0
 10
55.945520
 20
23.627908
 30
0.0
 10
57.622024
 20
24.305908
 30
0.0
 10
59.556520
 20
25.391908
 30
0.0
 10
61.674024
 20
26.849908
 30
0.0
 10
61.738024
 20
27.873908
 30
0.0
  0
LWPOLYLINE
  5
10e
100
AcDbEntity
  8
aa
 62
7
100
AcDbPolyline
 90
80
 70
0
 10
28.744693
 20
54.699324
 30
0.0
 10
28.089220
 20
54.663256
 30
0.0
 10
27.573137
 20
54.567416
 30
0.0
 10
27.135861
 20
54.417985
 30
0.0
 10
26.716808
 20
54.221146
 30
0.0
 10
26.073585
 20
53.820049
 30
0.0
 10
25.508311
 20
53.313301
 30
0.0
 10
25.025553
 20
52.708493
 30
0.0
 10
24.629879
 20
52.013215
 30
0.0
 10
24.457552
 20
51.587723
 30
0.0
 10
24.345880
 20
51.145834
 30
0.0
 10
24.285456
 20
50.639959
 30
0.0
 10
24.266872
 20
50.022505
 30
0.0
 10
24.299853
 20
49.308909
 30
0.0
 10
24.401302
 20
48.629869
 30
0.0
 10
24.572429
 20
47.982264
 30
0.0
 10
24.814446
 20
47.362977
 30
0.0
 10
25.128563
 20
46.768885
 30
0.0
 10
25.515991
 20
46.196871
 30
0.0
 10
25.977940
 20
45.643815
 30
0.0
 10
26.515623
 20
45.106596
 30
0.0
 10
27.607784
 20
44.158664
 30
0.0
 10
29.566927
 20
42.655202
 30
0.0
 10
30.561520
 20
41.838717
 30
0.0
 10
31.274812
 20
41.163810
 30
0.0
 10
31.560754
 20
40.803436
 30
0.0
 10
31.693947
 20
40.579208
 30
0.0
 10
31.778503
 20
40.448000
 30
0.0
 10
31.950530
 20
40.303672
 30
0.0
 10
32.156725
 20
40.247713
 30
0.0
 10
32.386431
 20
40.270141
 30
0.0
 10
32.543305
 20
40.344793
 30
0.0
 10
32.627237
 20
40.417857
 30
0.0
 10
32.686022
 20
40.527454
 30
0.0
 10
32.742149
 20
40.633148
 30
0.0
 10
32.728680
 20
40.601844
 30
0.0
 10
32.785885
 20
40.677613
 30
0.0
 10
33.010396
 20
40.917431
 30
0.0
 10
33.777960
 20
41.656567
 30
0.0
 10
34.807501
 20
42.561097
 30
0.0
 10
35.919558
 20
43.435158
 30
0.0
 10
37.448004
 20
44.623633
 30
0.0
 10
38.060227
 20
45.172546
 30
0.0
 10
38.581978
 20
45.704658
 30
0.0
 10
39.021406
 20
46.230030
 30
0.0
 10
39.386658
 20
46.758725
 30
0.0
 10
39.685880
 20
47.300804
 30
0.0
 10
39.927219
 20
47.866328
 30
0.0
 10
40.079205
 20
48.379231
 30
0.0
 10
40.177703
 20
48.934259
 30
0.0
 10
40.227314
 20
49.515505
 30
0.0
 10
40.232641
 20
50.107061
 30
0.0
 10
40.197836
 20
50.690399
 30
0.0
 10
40.119209
 20
51.248536
 30
0.0
 10
39.989599
 20
51.767872
 30
0.0
 10
39.801843
 20
52.234810
 30
0.0
 10
39.484467
 20
52.771633
 30
0.0
 10
39.110277
 20
53.242332
 30
0.0
 10
38.687054
 20
53.646786
 30
0.0
 10
38.222581
 20
53.984874
 30
0.0
 10
37.724639
 20
54.256471
 30
0.0
 10
37.201011
 20
54.461458
 30
0.0
 10
36.659478
 20
54.599711
 30
0.0
 10
36.107821
 20
54.671110
 30
0.0
 10
35.553824
 20
54.675531
 30
0.0
 10
35.005268
 20
54.612852
 30
0.0
 10
34.469934
 20
54.482953
 30
0.0
 10
33.955605
 20
54.285711
 30
0.0
 10
33.470062
 20
54.021003
 30
0.0
 10
33.021087
 20
53.688709
 30
0.0
 10
32.616463
 20
53.288705
 30
0.0
 10
32.263971
 20
52.820870
 30
0.0
 10
31.926476
 20
53.259686
 30
0.0
 10
31.390949
 20
53.783792
 30
0.0
 10
30.780596
 20
54.204380
 30
0.0
 10
30.361796
 20
54.417562
 30
0.0
 10
29.931146
 20
54.574031
 30
0.0
 10
29.416245
 20
54.669410
 30
0.0
 10
28.744693
 20
54.699324
 30
0.0
 10
28.744693
 20
54.699324
 30
0.0
  0
LWPOLYLINE
  5
10f
100
AcDbEntity
  8
aa
 62
7
100
AcDbPolyline
 90
71
 70
0
 10
35.842292
 20
53.679550
 30
0.0
 10
36.288231
 20
53.644684
 30
0.0
 10
36.728921
 20
53.551457
 30
0.0
 10
37.157403
 20
53.399888
 30
0.0
 10
37.566720
 20
53.189996
 30
0.0
 10
37.949915
 20
52.921799
 30
0.0
 10
38.300029
 20
52.595316
 30
0.0
 10
38.610105
 20
52.210565
 30
0.0
 10
38.873185
 20
51.767565
 30
0.0
 10
38.990628
 20
51.461274
 30
0.0
 10
39.088700
 20
51.057571
 30
0.0
 10
39.193186
 20
50.080090
 30
0.0
 10
39.141387
 20
49.064384
 30
0.0
 10
39.062065
 20
48.609570
 30
0.0
 10
38.951910
 20
48.227877
 30
0.0
 10
38.748967
 20
47.749107
 30
0.0
 10
38.496988
 20
47.289053
 30
0.0
 10
38.184427
 20
46.836203
 30
0.0
 10
37.799736
 20
46.379044
 30
0.0
 10
37.331367
 20
45.906064
 30
0.0
 10
36.767771
 20
45.405750
 30
0.0
 10
35.308714
 20
44.277073
 30
0.0
 10
34.139134
 20
43.358779
 30
0.0
 10
33.073084
 20
42.421944
 30
0.0
 10
32.266157
 20
41.643446
 30
0.0
 10
32.245747
 20
41.621578
 30
0.0
 10
32.051123
 20
41.856294
 30
0.0
 10
31.235289
 20
42.638305
 30
0.0
 10
30.193807
 20
43.485454
 30
0.0
 10
28.270071
 20
44.959592
 30
0.0
 10
27.219770
 20
45.871973
 30
0.0
 10
26.738862
 20
46.346953
 30
0.0
 10
26.334873
 20
46.818374
 30
0.0
 10
26.003888
 20
47.294263
 30
0.0
 10
25.741995
 20
47.782652
 30
0.0
 10
25.545278
 20
48.291568
 30
0.0
 10
25.409826
 20
48.829041
 30
0.0
 10
25.331723
 20
49.403101
 30
0.0
 10
25.307056
 20
50.021776
 30
0.0
 10
25.353489
 20
50.942153
 30
0.0
 10
25.432813
 20
51.246615
 30
0.0
 10
25.569471
 20
51.567109
 30
0.0
 10
25.886444
 20
52.127666
 30
0.0
 10
26.262177
 20
52.600747
 30
0.0
 10
26.696295
 20
52.988719
 30
0.0
 10
27.188426
 20
53.293946
 30
0.0
 10
27.542566
 20
53.470587
 30
0.0
 10
27.841994
 20
53.581590
 30
0.0
 10
28.205164
 20
53.640070
 30
0.0
 10
28.750525
 20
53.659140
 30
0.0
 10
29.308368
 20
53.649253
 30
0.0
 10
29.652774
 20
53.598343
 30
0.0
 10
29.928379
 20
53.486350
 30
0.0
 10
30.279821
 20
53.293217
 30
0.0
 10
30.723144
 20
52.984163
 30
0.0
 10
31.144333
 20
52.574491
 30
0.0
 10
31.461120
 20
52.140438
 30
0.0
 10
31.617409
 20
51.805469
 30
0.0
 10
31.710712
 20
51.439546
 30
0.0
 10
32.075178
 20
50.011571
 30
0.0
 10
32.687479
 20
51.352075
 30
0.0
 10
32.917821
 20
51.855766
 30
0.0
 10
33.156173
 20
52.288304
 30
0.0
 10
33.444733
 20
52.662366
 30
0.0
 10
33.776569
 20
52.977966
 30
0.0
 10
34.144749
 20
53.235120
 30
0.0
 10
34.542343
 20
53.433840
 30
0.0
 10
34.962419
 20
53.574142
 30
0.0
 10
35.398046
 20
53.656041
 30
0.0
 10
35.842292
 20
53.679550
 30
0.0
 10
35.842292
 20
53.679550
 30
0.0
  0
LWPOLYLINE
  5
110
100
AcDbEntity
  8
aa
 62
7
100
AcDbPolyline
 90
5
 70
0
 10
31.833173
 20
41.133924
 30
0.0
 10
31.815678
 20
41.106224
 30
0.0
 10
31.790166
 20
41.055928
 30
0.0
 10
31.833173
 20
41.133924
 30
0.0
 10
31.833173
 20
41.133924
 30
0.0
  0
LWPOLYLINE
  5
111
100
AcDbEntity
  8
aa
 62
7
100
AcDbPolyline
 90
80
 70
0
 10
28.744685
 20
-0.721908
 30
0.0
 10
28.089212
 20
-0.757976
 30
0.0
 10
27.573129
 20
-0.853816
 30
0.0
 10
27.135853
 20
-1.003247
 30
0.0
 10
26.716800
 20
-1.200086
 30
0.0
 10
26.073577
 20
-1.601183
 30
0.0
 10
25.508303
 20
-2.107931
 30
0.0
 10
25.025545
 20
-2.712739
 30
0.0
 10
24.629871
 20
-3.408017
 30
0.0
 10
24.457544
 20
-3.833509
 30
0.0
 10
24.345872
 20
-4.275398
 30
0.0
 10
24.285448
 20
-4.781273
 30
0.0
 10
24.266864
 20
-5.398727
 30
0.0
 10
24.299845
 20
-6.112323
 30
0.0
 10
24.401294
 20
-6.791363
 30
0.0
 10
24.572421
 20
-7.438968
 30
0.0
 10
24.814438
 20
-8.058255
 30
0.0
 10
25.128555
 20
-8.652347
 30
0.0
 10
25.515983
 20
-9.224361
 30
0.0
 10
25.977932
 20
-9.777417
 30
0.0
 10
26.515615
 20
-10.314636
 30
0.0
 10
27.607776
 20
-11.262568
 30
0.0
 10
29.566919
 20
-12.766030
 30
0.0
 10
30.561512
 20
-13.582515
 30
0.0
 10
31.274804
 20
-14.257422
 30
0.0
 10
31.560746
 20
-14.617796
 30
0.0
 10
31.693939
 20
-14.842024
 30
0.0
 10
31.778495
 20
-14.973232
 30
0.0
 10
31.950522
 20
-15.117560
 30
0.0
 10
32.156717
 20
-15.173519
 30
0.0
 10
32.386423
 20
-15.151091
 30
0.0
 10
32.543297
 20
-15.076439
 30
0.0
 10
32.627229
 20
-15.003375
 30
0.0
 10
32.686014
 20
-14.893778
 30
0.0
 10
32.742141
 20
-14.788084
 30
0.0
 10
32.728672
 20
-14.819388
 30
0.0
 10
32.785877
 20
-14.743619
 30
0.0
 10
33.010388
 20
-14.503801
 30
0.0
 10
33.777952
 20
-13.764665
 30
0.0
 10
34.807493
 20
-12.860135
 30
0.0
 10
35.919550
 20
-11.986074
 30
0.0
 10
37.447996
 20
-10.797599
 30
0.0
 10
38.060219
 20
-10.248686
 30
0.0
 10
38.581970
 20
-9.716574
 30
0.0
 10
39.021398
 20
-9.191202
 30
0.0
 10
39.386650
 20
-8.662507
 30
0.0
 10
39.685872
 20
-8.120428
 30
0.0
 10
39.927211
 20
-7.554904
 30
0.0
 10
40.079197
 20
-7.042001
 30
0.0
 10
40.177695
 20
-6.486973
 30
0.0
 10
40.227306
 20
-5.905727
 30
0.0
 10
40.232633
 20
-5.314171
 30
0.0
 10
40.197828
 20
-4.730833
 30
0.0
 10
40.119201
 20
-4.172696
 30
0.0
 10
39.989591
 20
-3.653360
 30
0.0
 10
39.801835
 20
-3.186422
 30
0.0
 10
39.484459
 20
-2.649599
 30
0.0
 10
39.110269
 20
-2.178900
 30
0.0
 10
38.687046
 20
-1.774446
 30
0.0
 10
38.222573
 20
-1.436358
 30
0.0
 10
37.724631
 20
-1.164761
 30
0.0
 10
37.201003
 20
-0.959774
 30
0.0
 10
36.659470
 20
-0.821521
 30
0.0
 10
36.107813
 20
-0.750122
 30
0.0
 10
35.553816
 20
-0.745701
 30
0.0
 10
35.005260
 20
-0.808380
 30
0.0
 10
34.469926
 20
-0.938279
 30
0.0
 10
33.955597
 20
-1.135521
 30
0.0
 10
33.470054
 20
-1.400229
 30
0.0
 10
33.021079
 20
-1.732523
 30
0.0
 10
32.616455
 20
-2.132527
 30
0.0
 10
32.263963
 20
-2.600362
 30
0.0
 10
31.926468
 20
-2.161546
 30
0.0
 10
31.390941
 20
-1.637440
 30
0.0
 10
30.780588
 20
-1.216852
 30
0.0
 10
30.361788
 20
-1.003670
 30
0.0
 10
29.931138
 20
-0.847201
 30
0.0
 10
29.416237
 20
-0.751822
 30
0.0
 10
28.744685
 20
-0.721908
 30
0.0
 10
28.744685
 20
-0.721908
 30
0.0
  0
LWPOLYLINE
  5
112
100
AcDbEntity
  8
aa
 62
7
100
AcDbPolyline
 90
71
 70
0
 10
35.842284
 20
-1.741682
 30
0.0
 10
36.288223
 20
-1.776548
 30
0.0
 10
36.728913
 20
-1.869775
 30
0.0
 10
37.157395
 20
-2.021344
 30
0.0
 10
37.566712
 20
-2.231236
 30
0.0
 10
37.949907
 20
-2.499433
 30
0.0
 10
38.300021
 20
-2.825916
 30
0.0
 10
38.610097
 20
-3.210667
 30
0.0
 10
38.873177
 20
-3.653667
 30
0.0
 10
38.990620
 20
-3.959958
 30
0.0
 10
39.088692
 20
-4.363661
 30
0.0
 10
39.193178
 20
-5.341142
 30
0.0
 10
39.141379
 20
-6.356848
 30
0.0
 10
39.062057
 20
-6.811662
 30
0.0
 10
38.951902
 20
-7.193355
 30
0.0
 10
38.748959
 20
-7.672125
 30
0.0
 10
38.496980
 20
-8.132179
 30
0.0
 10
38.184419
 20
-8.585029
 30
0.0
 10
37.799728
 20
-9.042188
 30
0.0
 10
37.331359
 20
-9.515168
 30
0.0
 10
36.767763
 20
-10.015482
 30
0.0
 10
35.308706
 20
-11.144159
 30
0.0
 10
34.139126
 20
-12.062453
 30
0.0
 10
33.073076
 20
-12.999288
 30
0.0
 10
32.266149
 20
-13.777786
 30
0.0
 10
32.245739
 20
-13.799654
 30
0.0
 10
32.051115
 20
-13.564938
 30
0.0
 10
31.235281
 20
-12.782927
 30
0.0
 10
30.193799
 20
-11.935778
 30
0.0
 10
28.270063
 20
-10.461640
 30
0.0
 10
27.219762
 20
-9.549259
 30
0.0
 10
26.738854
 20
-9.074279
 30
0.0
 10
26.334865
 20
-8.602858
 30
0.0
 10
26.003880
 20
-8.126969
 30
0.0
 10
25.741987
 20
-7.638580
 30
0.0
 10
25.545270
 20
-7.129664
 30
0.0
 10
25.409818
 20
-6.592191
 30
0.0
 10
25.331715
 20
-6.018131
 30
0.0
 10
25.307048
 20
-5.399456
 30
0.0
 10
25.353481
 20
-4.479079
 30
0.0
 10
25.432805
 20
-4.174617
 30
0.0
 10
25.569463
 20
-3.854123
 30
0.0
 10
25.886436
 20
-3.293566
 30
0.0
 10
26.262169
 20
-2.820485
 30
0.0
 10
26.696287
 20
-2.432513
 30
0.0
 10
27.188418
 20
-2.127286
 30
0.0
 10
27.542558
 20
-1.950645
 30
0.0
 10
27.841986
 20
-1.839642
 30
0.0
 10
28.205156
 20
-1.781162
 30
0.0
 10
28.750517
 20
-1.762092
 30
0.0
 10
29.308360
 20
-1.771979
 30
0.0
 10
29.652766
 20
-1.822889
 30
0.0
 10
29.928371
 20
-1.934882
 30
0.0
 10
30.279813
 20
-2.128015
 30
0.0
 10
30.723136
 20
-2.437069
 30
0.0
 10
31.144325
 20
-2.846741
 30
0.0
 10
31.461112
 20
-3.280794
 30
0.0
 10
31.617401
 20
-3.615763
 30
0.0
 10
31.710704
 20
-3.981686
 30
0.0
 10
32.075170
 20
-5.409661
 30
0.0
 10
32.687471
 20
-4.069157
 30
0.0
 10
32.917813
 20
-3.565466
 30
0.0
 10
33.156165
 20
-3.132928
 30
0.0
 10
33.444725
 20
-2.758866
 30
0.0
 10
33.776561
 20
-2.443266
 30
0.0
 10
34.144741
 20
-2.186112
 30
0.0
 10
34.542335
 20
-1.987392
 30
0.0
 10
34.962411
 20
-1.847090
 30
0.0
 10
35.398038
 20
-1.765191
 30
0.0
 10
35.842284
 20
-1.741682
 30
0.0
 10
35.842284
 20
-1.741682
 30
0.0
  0
LWPOLYLINE
  5
113
100
AcDbEntity
  8
aa
 62
7
100
AcDbPolyline
 90
5
 70
0
 10
31.833165
 20
-14.287308
 30
0.0
 10
31.815670
 20
-14.315008
 30
0.0
 10
31.790158
 20
-14.365304
 30
0.0
 10
31.833165
 20
-14.287308
 30
0.0
 10
31.833165
 20
-14.287308
 30
0.0
  0
ENDSEC
  0
SECTION
  2
OBJECTS
  0
DICTIONARY
  5
C
330
0
100
AcDbDictionary
  3
ACAD_GROUP
350
D
  3
ACAD_MLINESTYLE
350
17
  0
DICTIONARY
  5
D
330
C
100
AcDbDictionary
  0
DICTIONARY
  5
1A
330
C
100
AcDbDictionary
  0
DICTIONARY
  5
17
330
C
100
AcDbDictionary
  3
STANDARD
350
18
  0
DICTIONARY
  5
19
330
C
100
AcDbDictionary
  0
ENDSEC
  0
EOF
